<?xml version="1.0" standalone="no"?>
<!DOCTYPE svg PUBLIC "-//W3C//DTD SVG 20010904//EN"
 "http://www.w3.org/TR/2001/REC-SVG-20010904/DTD/svg10.dtd">
<svg version="1.0" xmlns="http://www.w3.org/2000/svg"
 width="1200.000000pt" height="1496.000000pt" viewBox="0 0 1200.000000 1496.000000"
 preserveAspectRatio="xMidYMid meet">

<g transform="translate(0.000000,1496.000000) scale(0.100000,-0.100000)"
fill="#000000" stroke="none">
<path d="M3595 14548 c-110 -87 -312 -288 -424 -423 -630 -757 -1089 -1810
-1356 -3105 -45 -222 -115 -624 -115 -664 0 -12 -55 -104 -123 -206 -142 -215
-199 -308 -295 -486 -86 -158 -118 -232 -106 -244 5 -4 57 -34 117 -65 59 -31
107 -59 107 -61 0 -3 -63 -76 -139 -162 -341 -383 -656 -802 -906 -1201 l-77
-124 82 -285 c287 -1000 658 -2026 1017 -2812 134 -293 409 -830 433 -845 5
-3 41 96 81 220 40 124 75 225 79 225 3 0 14 -16 23 -36 35 -73 216 -366 345
-559 536 -799 1148 -1435 1769 -1835 l131 -85 32 -77 c71 -172 231 -439 379
-633 88 -116 282 -319 393 -411 244 -204 544 -354 830 -414 116 -25 150 -25
263 0 283 63 569 204 813 402 106 86 272 254 366 371 157 196 328 476 417 681
l34 79 129 84 c319 209 590 435 897 751 427 438 862 1019 1176 1573 l68 119
74 -230 c41 -127 77 -230 80 -230 17 0 279 507 411 795 377 820 754 1859 1050
2892 39 133 70 248 70 255 0 16 -154 263 -267 426 -215 312 -503 676 -755 953
-55 61 -98 112 -96 114 1 1 56 31 120 65 l117 63 -15 36 c-59 142 -233 443
-401 694 l-113 169 -39 241 c-252 1537 -759 2772 -1483 3612 -114 132 -296
308 -400 388 -62 48 -80 57 -95 48 -24 -13 -140 -133 -241 -249 -349 -400
-652 -955 -836 -1530 -25 -79 -53 -171 -61 -205 -38 -149 -34 -139 -63 -133
-50 10 -404 36 -747 56 -314 17 -359 18 -610 4 -292 -15 -777 -51 -824 -60
-28 -6 -28 -6 -50 83 -36 146 -109 368 -182 553 -174 443 -411 852 -686 1182
-96 115 -282 308 -297 308 -6 0 -51 -33 -101 -72z m360 -943 c250 -332 456
-760 599 -1246 49 -165 96 -357 96 -388 0 -14 -33 -40 -117 -93 l-118 -73 45
-3 c69 -3 341 -32 373 -38 27 -6 21 -11 -80 -68 -444 -255 -831 -545 -1231
-923 -103 -98 -142 -129 -138 -112 3 13 15 74 26 134 42 223 122 492 189 639
17 38 30 70 28 72 -1 2 -48 -3 -102 -11 -150 -22 -140 -29 -101 78 97 266 266
593 438 850 l60 89 -16 127 c-33 256 -105 508 -201 706 -83 170 -69 166 -160
39 -260 -366 -511 -785 -687 -1144 -118 -241 -345 -763 -575 -1320 -125 -303
-122 -304 -73 5 108 675 311 1337 566 1848 225 449 516 851 789 1089 l90 79
105 -108 c58 -59 146 -162 195 -228z m4605 156 c521 -524 935 -1367 1159
-2358 56 -246 148 -798 124 -743 -3 8 -52 128 -109 266 -167 410 -427 1014
-537 1245 -136 290 -365 686 -582 1009 -175 261 -216 315 -227 298 -126 -189
-238 -541 -278 -880 l-10 -87 84 -128 c107 -163 219 -364 297 -534 65 -142
151 -360 145 -366 -2 -3 -55 3 -117 11 -62 9 -114 14 -116 12 -3 -2 7 -26 20
-53 45 -88 97 -242 142 -416 36 -141 85 -368 85 -394 0 -3 -46 39 -102 93
-301 290 -586 520 -933 751 -136 90 -343 217 -420 256 l-30 15 35 6 c76 12
210 26 308 32 120 8 121 4 -25 93 -67 41 -103 69 -103 80 0 43 87 365 149 551
185 554 430 989 736 1309 l107 111 32 -22 c17 -12 92 -83 166 -157z m-2506
-3296 c139 -723 259 -1680 326 -2600 11 -154 23 -308 26 -343 l6 -62 81 -62
c283 -215 629 -575 829 -860 35 -49 68 -97 74 -106 10 -13 13 -7 22 34 38 176
61 412 69 695 l6 236 56 18 c262 82 525 269 655 464 86 129 166 330 166 417 0
31 -1 31 -61 38 -95 9 -393 7 -493 -4 -49 -6 -91 -8 -94 -6 -2 3 12 58 32 122
20 64 34 119 32 121 -10 10 -137 -87 -225 -172 -178 -172 -336 -397 -479 -684
l-86 -174 -29 34 c-40 48 -100 169 -130 266 -83 263 -113 552 -104 1001 l6
284 27 36 c56 77 312 319 404 384 95 68 295 178 322 178 14 0 38 -30 157 -195
70 -97 221 -334 221 -347 0 -4 -31 -24 -70 -43 -38 -19 -70 -39 -70 -43 0 -19
177 -206 262 -277 185 -156 411 -282 620 -347 l107 -33 6 -80 c4 -44 2 -174
-4 -290 -18 -332 -52 -607 -138 -1105 l-6 -35 42 50 c193 231 401 686 491
1076 l22 96 146 46 c250 79 503 141 698 172 l41 6 244 -205 c134 -113 245
-209 247 -214 1 -5 -108 -80 -243 -168 -135 -87 -242 -160 -237 -161 11 -4
786 -103 801 -103 17 0 14 -16 -58 -291 -147 -553 -381 -1253 -633 -1884 -44
-110 -83 -203 -87 -208 -4 -4 -37 68 -74 160 -37 93 -71 174 -76 181 -5 9 -34
-34 -91 -140 -283 -522 -583 -947 -894 -1267 -109 -111 -278 -261 -296 -261
-24 0 228 743 409 1204 28 72 48 132 46 134 -9 10 -195 -151 -317 -275 -329
-332 -606 -741 -879 -1298 -185 -377 -309 -685 -476 -1180 -51 -154 -119 -332
-149 -395 -160 -333 -396 -577 -698 -721 -330 -157 -622 -174 -955 -57 -373
131 -681 429 -858 829 -25 57 -77 198 -115 313 -171 517 -316 873 -519 1276
-238 474 -476 833 -758 1144 -135 150 -392 379 -407 364 -2 -3 10 -38 26 -79
60 -144 219 -576 288 -784 74 -219 154 -477 149 -481 -8 -8 -219 180 -321 287
-298 312 -587 722 -857 1216 -50 93 -95 172 -99 176 -4 5 -40 -73 -80 -173
-40 -100 -76 -178 -81 -173 -11 11 -163 400 -266 678 -164 446 -308 889 -416
1280 -57 203 -109 416 -105 420 2 1 185 26 408 55 223 29 406 53 407 54 2 2
-107 74 -242 162 -135 87 -244 162 -243 166 7 17 493 418 507 418 29 0 314
-60 431 -91 63 -16 188 -53 277 -81 l161 -51 31 -124 c103 -409 274 -784 470
-1031 24 -30 44 -52 47 -50 2 2 -14 111 -36 241 -70 421 -100 738 -100 1052
l0 202 67 18 c301 82 636 296 851 545 39 46 72 88 72 92 0 4 -31 24 -70 43
-38 19 -70 38 -70 42 0 8 76 131 153 248 93 141 211 295 225 295 18 0 181 -82
251 -127 140 -89 311 -242 438 -389 l61 -72 7 -148 c11 -206 0 -614 -20 -763
-38 -299 -117 -540 -209 -647 l-32 -37 -67 138 c-146 299 -292 513 -481 701
-108 107 -230 204 -242 192 -2 -3 13 -60 35 -127 l39 -123 -36 6 c-65 10 -466
19 -545 11 -75 -7 -77 -7 -77 -34 0 -48 40 -184 80 -268 116 -249 333 -447
621 -570 53 -23 114 -46 136 -52 l40 -11 6 -227 c7 -248 26 -454 58 -633 11
-63 21 -115 22 -117 2 -1 44 55 95 125 50 70 131 174 179 232 132 159 421 443
580 569 l142 113 5 52 c3 28 15 195 26 371 65 986 211 2143 352 2777 l11 53 9
-35 c4 -19 23 -116 42 -215z m-1869 -2403 c16 -6 20 -17 22 -55 2 -56 27 -104
71 -134 36 -24 101 -38 132 -28 20 6 20 7 -5 49 -13 23 -31 60 -39 83 l-15 41
37 -15 c62 -25 165 -82 197 -107 l30 -24 -17 -35 c-27 -57 -85 -114 -134 -133
-56 -21 -159 -15 -225 14 -56 24 -116 82 -136 129 -22 53 -35 141 -28 184 7
38 8 39 48 38 23 -1 51 -4 62 -7z m3761 -29 c9 -48 -10 -146 -39 -203 -44 -85
-149 -140 -266 -140 -95 1 -175 54 -219 147 -17 35 -17 35 13 60 33 26 226
125 233 118 2 -2 -13 -40 -35 -84 -29 -62 -35 -82 -25 -86 38 -14 112 7 156
46 35 31 63 110 53 149 -5 21 9 26 80 29 41 1 42 0 49 -36z"/>
<path d="M5848 5455 c-204 -32 -419 -135 -570 -274 l-58 -53 0 -82 c0 -101 22
-251 55 -376 28 -105 112 -287 169 -365 93 -129 241 -250 374 -306 59 -25 67
-31 70 -58 4 -38 -28 -100 -72 -138 -123 -109 -494 -122 -733 -26 -244 98
-404 296 -723 898 -198 373 -269 478 -373 549 -46 31 -117 58 -117 43 0 -3 16
-34 36 -69 193 -339 430 -919 594 -1448 21 -69 68 -222 105 -340 36 -118 91
-312 121 -430 64 -251 102 -370 154 -491 200 -462 602 -795 1073 -889 69 -14
164 2 305 51 202 71 395 193 551 349 119 119 212 249 291 405 79 158 117 268
179 515 69 273 110 413 236 803 195 604 320 920 524 1322 58 115 108 213 110
219 8 19 -66 -6 -115 -40 -104 -71 -175 -174 -354 -514 -411 -781 -583 -950
-1013 -992 -202 -20 -382 13 -464 85 -62 54 -95 160 -55 173 229 77 435 281
542 535 66 160 110 371 110 535 l0 81 -54 51 c-149 141 -366 244 -586 277
-114 18 -196 18 -312 0z m328 -241 c96 -20 223 -83 284 -140 28 -26 50 -51 50
-57 0 -6 -8 -3 -17 5 -69 61 -276 125 -433 135 -174 10 -388 -36 -513 -111
-42 -25 -54 -30 -47 -16 19 35 95 92 175 130 153 73 322 92 501 54z m-990
-1960 c-14 -37 -18 -163 -7 -232 15 -95 43 -176 99 -287 45 -86 138 -220 180
-258 20 -18 21 -18 37 17 15 31 61 76 78 76 3 0 16 -19 30 -43 81 -138 250
-218 435 -204 177 13 290 82 378 233 10 17 12 17 42 -5 18 -12 40 -38 50 -58
l18 -35 43 48 c103 117 199 292 236 430 21 75 30 236 17 292 -5 23 -6 42 -2
42 14 0 70 -73 95 -125 42 -85 59 -170 58 -290 0 -170 -46 -317 -135 -433 -62
-80 -132 -125 -261 -168 -62 -20 -158 -57 -215 -81 -139 -59 -198 -73 -322
-80 -139 -7 -236 12 -390 77 -67 28 -169 67 -228 87 -118 40 -162 64 -218 119
-178 178 -233 539 -117 769 14 27 39 67 55 88 30 38 55 50 44 21z"/>
</g>
</svg>
